<svg id="Layer_1" data-name="Layer 1" xmlns="http://www.w3.org/2000/svg" width="1438.16" height="449.85" viewBox="0 0 1438.16 449.85"><defs><style>.cls-1{fill:#fc7313;}.cls-2{fill:#4d4746;}</style></defs><path class="cls-1" d="M238.33,382c-13.49.42-38.64-1.3-51.32-5.24l-9.86,42.52c0,20.14-58.15,56.72-80.55,93.37l73-399c0-11.38-2.46-27.42-31.1-27.42V78.34h98.6C303.38,78.34,447.67,84,434,211,425.21,292.69,341.67,378.76,238.33,382ZM236.1,92.11,189,359c14.72,8.76,41,8,57,8,75.28,0,112.27-90.54,117-143C373,113,290.1,96.05,236.1,92.11Z" transform="translate(-96.6 -62.8)"/><path class="cls-2" d="M690.06,371.66c-18.81,5.87-33.33,9.36-47,9.36-49,0-80.08-63-89.58-93.38,0,0,84.76-11.85,86.5-78.14,1.1-42-45.5-48.5-66.67-41.84C560.11,171.82,560.5,180,558,190L530,345.5c0,10.73,6.44,19.79,25.41,19.8v7.64l-117.24,0v-7.64c23,0,33.84-16.81,33.84-28.27l28-158c0-8.49-1-21-24-21l1-7.86,78.46,0c60.11,0,146,1.34,146,60.84,0,51.67-83.17,78.67-88.5,74.5,3.41,2.67,20.33,65.83,61.91,79.4,2.44.8,10.11-.42,16.5-3Z" transform="translate(-96.6 -62.8)"/><path class="cls-2" d="M829.11,373l-116.82,0v-7.63c23,0,28.14-10.18,28.15-21.64l29.65-160.6c0-8.49.3-25.5-24-25.5l1.91-7.39,115-.07L862,159c-22.17,0-32,9.39-32,20L801,343.72c0,8.06,3.83,21.64,28.13,21.65ZM820.2,62.8c17.91,0,26.4,14.44,26.39,32.26a32.31,32.31,0,0,1-32.4,32.24c-17.91,0-29.4-8.43-29.4-26.26S802.29,62.8,820.2,62.8Z" transform="translate(-96.6 -62.8)"/><path class="cls-2" d="M887,150.14l92,1.19-4.67,23.34c12.8-16.55,35.6-29.76,63.31-29.76,32.83,0,50.43,16.35,62.36,43.09,12.8-23.76,49-48.91,84.33-43.06,44.67,7.39,58.15,39.73,53.34,86.39l-19.32,115.76c0,8.06,1.11,18.37,24.13,18.38l-1,7.64-117,0v-7.64c21.74,0,32.14-9.91,32.14-20.94l21-122.5c3.33-33,2.24-57.77-28-52.56-20.68,3.56-35.35,20.89-48,63.56l-20.46,115.79c0,5.39,2.5,16.64,24.13,16.64l-1,7.64-116.95,0V365.4c21.75,0,33.15-10.9,33.15-21.93L1042,217.67c3-43.34-9.34-47.62-21-49.67-21.84-3.83-48.67,21.33-58.48,77.31l-18,103.26c0,8.06,3.82,16.82,24.71,16.83l-1,7.64-116.38,0,2-7.64c23,0,28.14-10.18,28.14-21.63L912,179c0-8.06-1.7-20-26-20Z" transform="translate(-96.6 -62.8)"/><path class="cls-2" d="M1352.33,243.71c-.93,6.16-3.83,18.41-4.66,24.29-9.17,65,.33,97.5,49.3,97.5,32.83,0,49.7-27.17,64.13-50.33l44.55,15.39c-24,25-53.65,45.44-104.41,47.95-88.57,4.37-127.74-54-117.72-114.57,7.39-44.72,43.16-103.53,108.52-116.79,78-15.82,151,13.52,142,96.6Zm3.17-14,116,.29c11.17-70.67-38-81-69.5-67C1379.23,173.12,1364,196.67,1355.5,229.71Z" transform="translate(-96.6 -62.8)"/><path class="cls-2" d="M367.42,421.41a88.09,88.09,0,0,0,10.15-2.59,41.53,41.53,0,0,0,8.05-3.61,39.68,39.68,0,0,0,7-5.34,98.1,98.1,0,0,0,7.26-7.79H416l-4.53,19.33h12.19l-2,9.67H409.28l-6.4,28.14q-.78,3.31-1.25,5.92a24.68,24.68,0,0,0-.47,4c0,1.92.75,3.12,2.27,3.6s4.34.72,8.51.72l-2.34,10a18.79,18.79,0,0,1-3.36.43c-1.51.1-3.18.22-5,.37s-3.7.23-5.63.28-3.62.08-5.07.08a56.75,56.75,0,0,1-7.66-.51,20.87,20.87,0,0,1-6.72-2,11.85,11.85,0,0,1-4.76-4.4,14.61,14.61,0,0,1-1.8-7.79c0-1.16.08-2.6.24-4.33a38.2,38.2,0,0,1,1-5.77l6.56-28.72H365.23Z" transform="translate(-96.6 -62.8)"/><path class="cls-2" d="M454.12,454.46a54.13,54.13,0,0,0-.86,6.06c-.15,1.92-.23,3.66-.23,5.19,0,.87.05,1.83.15,2.89a10.87,10.87,0,0,0,.71,3,6.22,6.22,0,0,0,1.56,2.31,4.13,4.13,0,0,0,2.89.93,7.46,7.46,0,0,0,3.2-.86,16.31,16.31,0,0,0,3.6-2.45,23,23,0,0,0,3.43-3.9,19,19,0,0,0,2.58-5.2h25.62l-4.06,15.44a34,34,0,0,1-7.19,3.18,64.59,64.59,0,0,1-8.59,2.09c-3,.53-6.09.91-9.22,1.16s-6.09.36-8.9.36a77.06,77.06,0,0,1-14.53-1.3,33.5,33.5,0,0,1-11.72-4.48,22.78,22.78,0,0,1-7.89-8.44,26.92,26.92,0,0,1-2.89-13.06,40.78,40.78,0,0,1,2.43-13.85,30.07,30.07,0,0,1,8.12-12.05q5.7-5.26,15.31-8.44t24-3.17q15.61,0,23.51,4.47t7.89,14a32.14,32.14,0,0,1-1.25,8.44,21.64,21.64,0,0,1-3.75,7.72Zm20.78-17.17q0-4.47-1.56-6.06a5.1,5.1,0,0,0-3.75-1.59,7.71,7.71,0,0,0-4.61,1.51,16,16,0,0,0-3.83,4A34.14,34.14,0,0,0,458,441a47.17,47.17,0,0,0-2.35,6.85h17.81c.21-1.15.42-2.36.63-3.61.21-1,.39-2.21.55-3.46A29.21,29.21,0,0,0,474.9,437.29Z" transform="translate(-96.6 -62.8)"/><path class="cls-2" d="M574.88,480a67.48,67.48,0,0,1-13.82,3.53,111.61,111.61,0,0,1-16.49,1.09,68.7,68.7,0,0,1-14.92-1.52,34.81,34.81,0,0,1-11.79-4.83,23.35,23.35,0,0,1-7.81-8.59,26.74,26.74,0,0,1-2.81-12.77,36.2,36.2,0,0,1,2.89-14.5,32.2,32.2,0,0,1,8.75-11.76,42.08,42.08,0,0,1,14.91-7.94,71.55,71.55,0,0,1,21.56-2.88A90.26,90.26,0,0,1,573,421.34a22.09,22.09,0,0,1,12.34,6.86L581,446.67H559.73c.1-1.64.21-3.08.31-4.33s.16-2.65.16-4.19q0-4.62-1.1-6.56a3.8,3.8,0,0,0-3.59-1.95,9.71,9.71,0,0,0-7.66,4,33.38,33.38,0,0,0-5.38,9.52,60.71,60.71,0,0,0-3.13,11.69,65.13,65.13,0,0,0-1,10.46c0,1.06,0,2.14.15,3.25a11.88,11.88,0,0,0,.7,3.1,6,6,0,0,0,1.49,2.31,3.74,3.74,0,0,0,2.65.86,9.34,9.34,0,0,0,3.6-.86,13.19,13.19,0,0,0,3.9-2.67,22.51,22.51,0,0,0,3.6-4.69,24.08,24.08,0,0,0,2.65-6.93h22.34Z" transform="translate(-96.6 -62.8)"/><path class="cls-2" d="M629.4,430.65h1.1A42.7,42.7,0,0,1,645.18,422a30.55,30.55,0,0,1,10.16-1.59q8.11,0,13.43,3.83a12.2,12.2,0,0,1,5.31,10.46,24.39,24.39,0,0,1-.47,4.54q-.47,2.53-1.09,5.34t-1.33,5.63q-.71,2.82-1.17,5.12l-6.56,28.14H631.75l8.59-37.66c.21-1.25.47-2.53.78-3.82a15.42,15.42,0,0,0,.47-3.54,5.24,5.24,0,0,0-1.17-3.53,4.37,4.37,0,0,0-3.52-1.38,9.05,9.05,0,0,0-5.39,1.88,32,32,0,0,0-4,3.32l-10.31,44.73H585.35l22.18-97h32Z" transform="translate(-96.6 -62.8)"/><path class="cls-2" d="M720.32,430.65a51.78,51.78,0,0,1,7.35-5.34,54.07,54.07,0,0,1,8.43-3.75,31.7,31.7,0,0,1,10.78-1.73q8.13,0,13.44,3.82a12.21,12.21,0,0,1,5.31,10.46,27.29,27.29,0,0,1-.47,4.55c-.31,1.78-.68,3.63-1.09,5.55s-.86,3.88-1.33,5.85-.86,3.73-1.17,5.26L755,483.46H723.29l8.59-37.66c.21-1.25.47-2.53.79-3.82a15.36,15.36,0,0,0,.46-3.54,5.24,5.24,0,0,0-1.17-3.53,4.34,4.34,0,0,0-3.51-1.38,9,9,0,0,0-5.39,1.88,47.41,47.41,0,0,0-4,3.17l-10.31,44.88H676.89l14.22-62h25.46l2.82,9.24Z" transform="translate(-96.6 -62.8)"/><path class="cls-2" d="M819.21,419.83q18.6,0,27,6.06,8.91,6.35,8.9,21.06a39.41,39.41,0,0,1-3.28,16.38,32,32,0,0,1-9.21,12.05q-11.88,9.24-34.37,9.24-19.21,0-27.5-6.79-8.89-7.06-8.9-21.21a35.23,35.23,0,0,1,4.14-17,34.65,34.65,0,0,1,12-12.69Q799.37,419.82,819.21,419.83Zm-10.62,55c2.6,0,4.87-1.34,6.8-4a32.65,32.65,0,0,0,4.6-9.88,89.09,89.09,0,0,0,3.44-23,17,17,0,0,0-.86-6.13c-.57-1.39-1.79-2.09-3.67-2.09q-4.21,0-7.26,4.18a35.37,35.37,0,0,0-4.93,10A70.77,70.77,0,0,0,804,455.61a73.59,73.59,0,0,0-.86,9.81Q803.12,474.81,808.59,474.8Z" transform="translate(-96.6 -62.8)"/><path class="cls-2" d="M890.14,483.46H858.27l22.18-97h32Z" transform="translate(-96.6 -62.8)"/><path class="cls-2" d="M954.81,419.83q18.6,0,27,6.06,8.91,6.35,8.91,21.06a39.41,39.41,0,0,1-3.29,16.38,32,32,0,0,1-9.21,12.05q-11.88,9.24-34.37,9.24-19.21,0-27.5-6.79-8.89-7.06-8.9-21.21a35.23,35.23,0,0,1,4.14-17,34.65,34.65,0,0,1,12-12.69Q935,419.82,954.81,419.83Zm-10.62,55c2.6,0,4.87-1.34,6.8-4a32.65,32.65,0,0,0,4.6-9.88,89.09,89.09,0,0,0,3.44-23,17,17,0,0,0-.86-6.13c-.57-1.39-1.79-2.09-3.67-2.09q-4.21,0-7.26,4.18a35.36,35.36,0,0,0-4.92,10,69.82,69.82,0,0,0-2.74,11.83,73.59,73.59,0,0,0-.86,9.81Q938.72,474.81,944.19,474.8Z" transform="translate(-96.6 -62.8)"/><path class="cls-2" d="M1059.17,421.41h25.31l-12.81,56.14a39.28,39.28,0,0,1-4.69,12,30.83,30.83,0,0,1-9.14,9.53,46.47,46.47,0,0,1-14.68,6.35,86.58,86.58,0,0,1-21.48,2.3c-1.56,0-3.44,0-5.63-.07l-6.71-.14c-2.3-.05-4.48-.12-6.57-.22s-3.75-.19-5-.29l3-10.39a79.93,79.93,0,0,0,10.24.8c3.48,0,6.48.07,9,.07a33.93,33.93,0,0,0,7.89-.79,13.4,13.4,0,0,0,5.31-2.53,12.67,12.67,0,0,0,3.44-4.62,31,31,0,0,0,2.11-7.07l1.87-9.38h-1.09a27.05,27.05,0,0,1-2.74,3.1,22.7,22.7,0,0,1-4.61,3.47,27.62,27.62,0,0,1-6.64,2.74,31.93,31.93,0,0,1-8.67,1.08,25.29,25.29,0,0,1-9.29-1.51,15.74,15.74,0,0,1-6.17-4.19,16.69,16.69,0,0,1-3.44-6.35,28,28,0,0,1-1.09-8c0-1.24.1-3.17.31-5.77a59.68,59.68,0,0,1,4.92-18.83,34.48,34.48,0,0,1,6.09-9.31,31,31,0,0,1,9.53-6.92,31.67,31.67,0,0,1,13.83-2.74,38,38,0,0,1,5.47.43,24.7,24.7,0,0,1,5.78,1.59,15.28,15.28,0,0,1,5,3.32,14.86,14.86,0,0,1,3.43,5.62h.94ZM1041.67,434c-2.5,0-4.58,1.22-6.25,3.68a33.09,33.09,0,0,0-4.06,8.58,61.36,61.36,0,0,0-2.26,9.74,55.43,55.43,0,0,0-.71,7.15,10.34,10.34,0,0,0,1,4.83,3.77,3.77,0,0,0,3.67,1.95,6.93,6.93,0,0,0,3.05-.72,20.75,20.75,0,0,0,2.81-1.66,21.23,21.23,0,0,0,3.83-3.54l5.78-25.25a33.27,33.27,0,0,0-2.89-3.18A5.56,5.56,0,0,0,1041.67,434Z" transform="translate(-96.6 -62.8)"/><path class="cls-2" d="M1115.88,483.46h-31.72l14.22-62h32Zm18.59-80.95a10.92,10.92,0,0,1-1.49,5.77,14.13,14.13,0,0,1-3.9,4.19,17.49,17.49,0,0,1-5.55,2.59,23.75,23.75,0,0,1-6.4.87,18.8,18.8,0,0,1-10.47-2.74q-4.22-2.74-4.22-8.66a11.5,11.5,0,0,1,1.41-5.7,12.16,12.16,0,0,1,3.83-4.18,18.18,18.18,0,0,1,5.62-2.53,25.2,25.2,0,0,1,6.64-.87,18.5,18.5,0,0,1,10.31,2.75Q1134.46,396.75,1134.47,402.51Z" transform="translate(-96.6 -62.8)"/><path class="cls-2" d="M1165.56,454.46a51.9,51.9,0,0,0-.86,6.06c-.16,1.92-.24,3.66-.24,5.19a28.06,28.06,0,0,0,.16,2.89,10.86,10.86,0,0,0,.7,3,6.46,6.46,0,0,0,1.56,2.31,4.13,4.13,0,0,0,2.89.93,7.5,7.5,0,0,0,3.21-.86,16.49,16.49,0,0,0,3.59-2.45,23,23,0,0,0,3.44-3.9,19,19,0,0,0,2.57-5.2h25.63l-4.07,15.44A33.89,33.89,0,0,1,1197,481a65,65,0,0,1-8.59,2.09c-3,.53-6.1.91-9.22,1.16s-6.09.36-8.91.36a77.06,77.06,0,0,1-14.53-1.3,33.52,33.52,0,0,1-11.71-4.48,22.62,22.62,0,0,1-7.89-8.44,26.81,26.81,0,0,1-2.89-13.06,40.77,40.77,0,0,1,2.42-13.85,30.07,30.07,0,0,1,8.12-12.05q5.7-5.26,15.31-8.44t24-3.17q15.63,0,23.52,4.47t7.88,14a31.73,31.73,0,0,1-1.25,8.44,21.63,21.63,0,0,1-3.74,7.72Zm20.77-17.17q0-4.47-1.56-6.06a5.07,5.07,0,0,0-3.75-1.59,7.75,7.75,0,0,0-4.61,1.51,16,16,0,0,0-3.82,4,34.88,34.88,0,0,0-3.13,5.78,46,46,0,0,0-2.34,6.85h17.81c.21-1.15.41-2.36.62-3.61.21-1,.39-2.21.55-3.46A27.23,27.23,0,0,0,1186.33,437.29Z" transform="translate(-96.6 -62.8)"/><path class="cls-2" d="M1264.91,439.59c.11-.48.21-1,.32-1.44a7.81,7.81,0,0,0,.15-1.59,11.64,11.64,0,0,0-1-4.83,4,4,0,0,0-4-2.24,8.56,8.56,0,0,0-5.31,2.1,6.7,6.7,0,0,0-2.65,5.55,5.07,5.07,0,0,0,1.32,3.68,9.87,9.87,0,0,0,3.52,2.24,29.89,29.89,0,0,0,4.92,1.44l5.39,1.16a58.49,58.49,0,0,1,7.11,2.09,23,23,0,0,1,6,3.24,15,15,0,0,1,4.22,5,15.5,15.5,0,0,1,1.56,7.29,16.61,16.61,0,0,1-3,10.17,21.69,21.69,0,0,1-8.44,6.64,44.37,44.37,0,0,1-12.65,3.54,113.71,113.71,0,0,1-15.55,1,104.45,104.45,0,0,1-20.93-1.74q-8.28-1.72-11.56-3.31l3.28-14.43h21.09a6.08,6.08,0,0,0-.16,1.37v1.37a7.9,7.9,0,0,0,1.64,5.26c1.1,1.3,3,1.95,5.7,1.95q4.53,0,6.49-2.38a7.19,7.19,0,0,0,2-4.4,4.67,4.67,0,0,0-1.64-3.53,14.37,14.37,0,0,0-4.14-2.6,38.33,38.33,0,0,0-5.55-1.88l-5.85-1.51a29.39,29.39,0,0,1-4.61-1.45,18.74,18.74,0,0,1-4.92-2.88,15,15,0,0,1-3.91-4.84,15.82,15.82,0,0,1-1.56-7.43,16.56,16.56,0,0,1,3.36-10.6,24.37,24.37,0,0,1,8.75-6.86A45.5,45.5,0,0,1,1246.4,421a81.46,81.46,0,0,1,13.67-1.15,87.89,87.89,0,0,1,16.25,1.44,51.7,51.7,0,0,1,12.5,3.75l-3.6,14.57Z" transform="translate(-96.6 -62.8)"/></svg>